<mxfile host="app.diagrams.net" agent="Mozilla/5.0 (Windows NT 10.0; Win64; x64) AppleWebKit/537.36 (KHTML, like Gecko) Chrome/130.0.0.0 Safari/537.36" version="24.7.16">
  <diagram id="C5RBs43oDa-KdzZeNtuy" name="Page-1">
    <mxGraphModel dx="2638" dy="676" grid="1" gridSize="10" guides="1" tooltips="1" connect="1" arrows="1" fold="1" page="1" pageScale="1" pageWidth="827" pageHeight="1169" math="0" shadow="0">
      <root>
        <mxCell id="WIyWlLk6GJQsqaUBKTNV-0" />
        <mxCell id="WIyWlLk6GJQsqaUBKTNV-1" parent="WIyWlLk6GJQsqaUBKTNV-0" />
        <mxCell id="KIG4UfqN8FC2LLV-DE01-42" style="edgeStyle=orthogonalEdgeStyle;rounded=0;orthogonalLoop=1;jettySize=auto;html=1;entryX=0.5;entryY=0;entryDx=0;entryDy=0;" parent="WIyWlLk6GJQsqaUBKTNV-1" source="WIyWlLk6GJQsqaUBKTNV-3" target="KIG4UfqN8FC2LLV-DE01-40" edge="1">
          <mxGeometry relative="1" as="geometry" />
        </mxCell>
        <mxCell id="KIG4UfqN8FC2LLV-DE01-61" style="edgeStyle=orthogonalEdgeStyle;rounded=0;orthogonalLoop=1;jettySize=auto;html=1;" parent="WIyWlLk6GJQsqaUBKTNV-1" source="WIyWlLk6GJQsqaUBKTNV-3" target="KIG4UfqN8FC2LLV-DE01-28" edge="1">
          <mxGeometry relative="1" as="geometry">
            <mxPoint x="230" y="390" as="targetPoint" />
            <Array as="points">
              <mxPoint x="144" y="390" />
            </Array>
          </mxGeometry>
        </mxCell>
        <mxCell id="KIG4UfqN8FC2LLV-DE01-77" style="edgeStyle=orthogonalEdgeStyle;rounded=0;orthogonalLoop=1;jettySize=auto;html=1;entryX=0;entryY=0.5;entryDx=0;entryDy=0;" parent="WIyWlLk6GJQsqaUBKTNV-1" source="WIyWlLk6GJQsqaUBKTNV-3" target="KIG4UfqN8FC2LLV-DE01-22" edge="1">
          <mxGeometry relative="1" as="geometry" />
        </mxCell>
        <mxCell id="ciOHL-3bGy2Yxvcf03ZE-22" style="edgeStyle=orthogonalEdgeStyle;rounded=0;orthogonalLoop=1;jettySize=auto;html=1;exitX=0.5;exitY=0;exitDx=0;exitDy=0;entryX=0;entryY=0.5;entryDx=0;entryDy=0;" edge="1" parent="WIyWlLk6GJQsqaUBKTNV-1" source="WIyWlLk6GJQsqaUBKTNV-3" target="ciOHL-3bGy2Yxvcf03ZE-21">
          <mxGeometry relative="1" as="geometry">
            <mxPoint x="640" y="60" as="targetPoint" />
          </mxGeometry>
        </mxCell>
        <mxCell id="WIyWlLk6GJQsqaUBKTNV-3" value="&lt;font style=&quot;font-size: 18px;&quot;&gt;Mercados&lt;/font&gt;" style="rounded=1;whiteSpace=wrap;html=1;fontSize=12;glass=0;strokeWidth=1;shadow=0;" parent="WIyWlLk6GJQsqaUBKTNV-1" vertex="1">
          <mxGeometry x="80" y="131" width="128" height="46" as="geometry" />
        </mxCell>
        <mxCell id="KIG4UfqN8FC2LLV-DE01-52" style="edgeStyle=orthogonalEdgeStyle;rounded=0;orthogonalLoop=1;jettySize=auto;html=1;" parent="WIyWlLk6GJQsqaUBKTNV-1" source="WIyWlLk6GJQsqaUBKTNV-6" target="WIyWlLk6GJQsqaUBKTNV-7" edge="1">
          <mxGeometry relative="1" as="geometry">
            <Array as="points">
              <mxPoint x="590" y="320" />
            </Array>
          </mxGeometry>
        </mxCell>
        <mxCell id="WIyWlLk6GJQsqaUBKTNV-6" value="&lt;font style=&quot;font-size: 14px;&quot;&gt;Avalia&lt;/font&gt;" style="rhombus;whiteSpace=wrap;html=1;shadow=0;fontFamily=Helvetica;fontSize=12;align=center;strokeWidth=1;spacing=6;spacingTop=-4;" parent="WIyWlLk6GJQsqaUBKTNV-1" vertex="1">
          <mxGeometry x="676.25" y="290" width="87.5" height="60" as="geometry" />
        </mxCell>
        <mxCell id="WIyWlLk6GJQsqaUBKTNV-7" value="&lt;font style=&quot;font-size: 18px;&quot;&gt;AvaliaçãoProduto&lt;/font&gt;" style="rounded=1;whiteSpace=wrap;html=1;fontSize=12;glass=0;strokeWidth=1;shadow=0;" parent="WIyWlLk6GJQsqaUBKTNV-1" vertex="1">
          <mxGeometry x="513.5" y="540" width="152.5" height="60" as="geometry" />
        </mxCell>
        <mxCell id="KIG4UfqN8FC2LLV-DE01-74" style="edgeStyle=orthogonalEdgeStyle;rounded=0;orthogonalLoop=1;jettySize=auto;html=1;entryX=0;entryY=0.5;entryDx=0;entryDy=0;" parent="WIyWlLk6GJQsqaUBKTNV-1" source="WIyWlLk6GJQsqaUBKTNV-10" target="WIyWlLk6GJQsqaUBKTNV-12" edge="1">
          <mxGeometry relative="1" as="geometry" />
        </mxCell>
        <mxCell id="WIyWlLk6GJQsqaUBKTNV-10" value="&lt;font style=&quot;font-size: 14px;&quot;&gt;Recebe&lt;/font&gt;" style="rhombus;whiteSpace=wrap;html=1;shadow=0;fontFamily=Helvetica;fontSize=12;align=center;strokeWidth=1;spacing=6;spacingTop=-4;" parent="WIyWlLk6GJQsqaUBKTNV-1" vertex="1">
          <mxGeometry x="208" y="240" width="80" height="60" as="geometry" />
        </mxCell>
        <mxCell id="KIG4UfqN8FC2LLV-DE01-73" style="edgeStyle=orthogonalEdgeStyle;rounded=0;orthogonalLoop=1;jettySize=auto;html=1;entryX=0;entryY=0.5;entryDx=0;entryDy=0;" parent="WIyWlLk6GJQsqaUBKTNV-1" source="WIyWlLk6GJQsqaUBKTNV-11" target="WIyWlLk6GJQsqaUBKTNV-10" edge="1">
          <mxGeometry relative="1" as="geometry">
            <Array as="points">
              <mxPoint x="180" y="270" />
            </Array>
          </mxGeometry>
        </mxCell>
        <mxCell id="WIyWlLk6GJQsqaUBKTNV-11" value="&lt;font style=&quot;font-size: 14px;&quot;&gt;Produto_mercado&lt;/font&gt;" style="rounded=1;whiteSpace=wrap;html=1;fontSize=12;glass=0;strokeWidth=1;shadow=0;" parent="WIyWlLk6GJQsqaUBKTNV-1" vertex="1">
          <mxGeometry x="90" y="444" width="130" height="46" as="geometry" />
        </mxCell>
        <mxCell id="ciOHL-3bGy2Yxvcf03ZE-9" style="edgeStyle=orthogonalEdgeStyle;rounded=0;orthogonalLoop=1;jettySize=auto;html=1;exitX=0.5;exitY=1;exitDx=0;exitDy=0;entryX=0.5;entryY=0;entryDx=0;entryDy=0;" edge="1" parent="WIyWlLk6GJQsqaUBKTNV-1" source="WIyWlLk6GJQsqaUBKTNV-12" target="KIG4UfqN8FC2LLV-DE01-23">
          <mxGeometry relative="1" as="geometry" />
        </mxCell>
        <mxCell id="WIyWlLk6GJQsqaUBKTNV-12" value="&lt;font style=&quot;font-size: 18px;&quot;&gt;Produtos&lt;/font&gt;" style="rounded=1;whiteSpace=wrap;html=1;fontSize=12;glass=0;strokeWidth=1;shadow=0;" parent="WIyWlLk6GJQsqaUBKTNV-1" vertex="1">
          <mxGeometry x="379" y="250" width="120" height="40" as="geometry" />
        </mxCell>
        <mxCell id="KIG4UfqN8FC2LLV-DE01-53" style="edgeStyle=orthogonalEdgeStyle;rounded=0;orthogonalLoop=1;jettySize=auto;html=1;entryX=0.5;entryY=0;entryDx=0;entryDy=0;" parent="WIyWlLk6GJQsqaUBKTNV-1" source="KIG4UfqN8FC2LLV-DE01-0" target="WIyWlLk6GJQsqaUBKTNV-6" edge="1">
          <mxGeometry relative="1" as="geometry" />
        </mxCell>
        <mxCell id="KIG4UfqN8FC2LLV-DE01-0" value="&lt;font style=&quot;font-size: 18px;&quot;&gt;Clientes&lt;/font&gt;" style="rounded=1;whiteSpace=wrap;html=1;" parent="WIyWlLk6GJQsqaUBKTNV-1" vertex="1">
          <mxGeometry x="660" y="131" width="120" height="42" as="geometry" />
        </mxCell>
        <mxCell id="KIG4UfqN8FC2LLV-DE01-4" value="DER - TCC do Sistema para mercados de Bairro" style="text;html=1;align=center;verticalAlign=middle;whiteSpace=wrap;rounded=0;fillColor=#dae8fc;strokeColor=#6c8ebf;" parent="WIyWlLk6GJQsqaUBKTNV-1" vertex="1">
          <mxGeometry x="402" y="32" width="200" height="30" as="geometry" />
        </mxCell>
        <mxCell id="KIG4UfqN8FC2LLV-DE01-11" value="1:N" style="text;html=1;align=center;verticalAlign=middle;whiteSpace=wrap;rounded=0;" parent="WIyWlLk6GJQsqaUBKTNV-1" vertex="1">
          <mxGeometry x="200" y="131" width="60" height="22" as="geometry" />
        </mxCell>
        <mxCell id="KIG4UfqN8FC2LLV-DE01-12" value="1:N" style="text;html=1;align=center;verticalAlign=middle;whiteSpace=wrap;rounded=0;" parent="WIyWlLk6GJQsqaUBKTNV-1" vertex="1">
          <mxGeometry x="618" y="131" width="48" height="22" as="geometry" />
        </mxCell>
        <mxCell id="KIG4UfqN8FC2LLV-DE01-19" value="N:M" style="text;html=1;align=center;verticalAlign=middle;whiteSpace=wrap;rounded=0;" parent="WIyWlLk6GJQsqaUBKTNV-1" vertex="1">
          <mxGeometry x="125" y="422" width="60" height="22" as="geometry" />
        </mxCell>
        <mxCell id="KIG4UfqN8FC2LLV-DE01-78" style="edgeStyle=orthogonalEdgeStyle;rounded=0;orthogonalLoop=1;jettySize=auto;html=1;" parent="WIyWlLk6GJQsqaUBKTNV-1" source="KIG4UfqN8FC2LLV-DE01-22" target="KIG4UfqN8FC2LLV-DE01-0" edge="1">
          <mxGeometry relative="1" as="geometry" />
        </mxCell>
        <mxCell id="KIG4UfqN8FC2LLV-DE01-22" value="Recebe" style="rhombus;whiteSpace=wrap;html=1;shadow=0;fontFamily=Helvetica;fontSize=12;align=center;strokeWidth=1;spacing=6;spacingTop=-4;" parent="WIyWlLk6GJQsqaUBKTNV-1" vertex="1">
          <mxGeometry x="400" y="124" width="78" height="60" as="geometry" />
        </mxCell>
        <mxCell id="KIG4UfqN8FC2LLV-DE01-23" value="Recebe" style="rhombus;whiteSpace=wrap;html=1;shadow=0;fontFamily=Helvetica;fontSize=12;align=center;strokeWidth=1;spacing=6;spacingTop=-4;" parent="WIyWlLk6GJQsqaUBKTNV-1" vertex="1">
          <mxGeometry x="400" y="384" width="78" height="60" as="geometry" />
        </mxCell>
        <mxCell id="KIG4UfqN8FC2LLV-DE01-68" style="edgeStyle=orthogonalEdgeStyle;rounded=0;orthogonalLoop=1;jettySize=auto;html=1;entryX=0;entryY=0.5;entryDx=0;entryDy=0;exitX=0.5;exitY=1;exitDx=0;exitDy=0;" parent="WIyWlLk6GJQsqaUBKTNV-1" source="KIG4UfqN8FC2LLV-DE01-28" target="WIyWlLk6GJQsqaUBKTNV-7" edge="1">
          <mxGeometry relative="1" as="geometry">
            <mxPoint x="580" y="510.0000000000001" as="targetPoint" />
            <mxPoint x="330" y="440" as="sourcePoint" />
            <Array as="points">
              <mxPoint x="320" y="513" />
            </Array>
          </mxGeometry>
        </mxCell>
        <mxCell id="KIG4UfqN8FC2LLV-DE01-28" value="Recebe" style="rhombus;whiteSpace=wrap;html=1;shadow=0;fontFamily=Helvetica;fontSize=12;align=center;strokeWidth=1;spacing=6;spacingTop=-4;" parent="WIyWlLk6GJQsqaUBKTNV-1" vertex="1">
          <mxGeometry x="282" y="360" width="78" height="60" as="geometry" />
        </mxCell>
        <mxCell id="KIG4UfqN8FC2LLV-DE01-31" value="N:M" style="text;html=1;align=center;verticalAlign=middle;whiteSpace=wrap;rounded=0;" parent="WIyWlLk6GJQsqaUBKTNV-1" vertex="1">
          <mxGeometry x="330" y="278" width="60" height="22" as="geometry" />
        </mxCell>
        <mxCell id="KIG4UfqN8FC2LLV-DE01-33" value="1:N" style="text;html=1;align=center;verticalAlign=middle;whiteSpace=wrap;rounded=0;" parent="WIyWlLk6GJQsqaUBKTNV-1" vertex="1">
          <mxGeometry x="90" y="177" width="60" height="22" as="geometry" />
        </mxCell>
        <mxCell id="KIG4UfqN8FC2LLV-DE01-35" value="1:N" style="text;html=1;align=center;verticalAlign=middle;whiteSpace=wrap;rounded=0;" parent="WIyWlLk6GJQsqaUBKTNV-1" vertex="1">
          <mxGeometry x="490" y="518" width="60" height="22" as="geometry" />
        </mxCell>
        <mxCell id="KIG4UfqN8FC2LLV-DE01-44" style="edgeStyle=orthogonalEdgeStyle;rounded=0;orthogonalLoop=1;jettySize=auto;html=1;entryX=0;entryY=0.5;entryDx=0;entryDy=0;" parent="WIyWlLk6GJQsqaUBKTNV-1" edge="1">
          <mxGeometry relative="1" as="geometry">
            <mxPoint x="8.999999999999773" y="360.9999999999998" as="sourcePoint" />
            <mxPoint x="90" y="468" as="targetPoint" />
            <Array as="points">
              <mxPoint x="9" y="468" />
            </Array>
          </mxGeometry>
        </mxCell>
        <mxCell id="KIG4UfqN8FC2LLV-DE01-40" value="Recebe" style="rhombus;whiteSpace=wrap;html=1;shadow=0;fontFamily=Helvetica;fontSize=12;align=center;strokeWidth=1;spacing=6;spacingTop=-4;" parent="WIyWlLk6GJQsqaUBKTNV-1" vertex="1">
          <mxGeometry x="-30" y="300" width="78" height="60" as="geometry" />
        </mxCell>
        <mxCell id="KIG4UfqN8FC2LLV-DE01-54" value="1:1" style="text;html=1;align=center;verticalAlign=middle;whiteSpace=wrap;rounded=0;" parent="WIyWlLk6GJQsqaUBKTNV-1" vertex="1">
          <mxGeometry x="540" y="518" width="60" height="22" as="geometry" />
        </mxCell>
        <mxCell id="KIG4UfqN8FC2LLV-DE01-63" value="1:N" style="text;html=1;align=center;verticalAlign=middle;whiteSpace=wrap;rounded=0;" parent="WIyWlLk6GJQsqaUBKTNV-1" vertex="1">
          <mxGeometry x="472" y="573" width="60" height="22" as="geometry" />
        </mxCell>
        <mxCell id="KIG4UfqN8FC2LLV-DE01-64" value="1:1" style="text;html=1;align=center;verticalAlign=middle;whiteSpace=wrap;rounded=0;" parent="WIyWlLk6GJQsqaUBKTNV-1" vertex="1">
          <mxGeometry x="703.75" y="173" width="60" height="22" as="geometry" />
        </mxCell>
        <mxCell id="KIG4UfqN8FC2LLV-DE01-71" value="" style="endArrow=classic;html=1;rounded=0;exitX=0.5;exitY=1;exitDx=0;exitDy=0;entryX=0;entryY=0;entryDx=0;entryDy=0;" parent="WIyWlLk6GJQsqaUBKTNV-1" source="KIG4UfqN8FC2LLV-DE01-23" target="WIyWlLk6GJQsqaUBKTNV-7" edge="1">
          <mxGeometry width="50" height="50" relative="1" as="geometry">
            <mxPoint x="580" y="497" as="sourcePoint" />
            <mxPoint x="630" y="447" as="targetPoint" />
            <Array as="points">
              <mxPoint x="440" y="460" />
              <mxPoint x="440" y="510" />
            </Array>
          </mxGeometry>
        </mxCell>
        <mxCell id="KIG4UfqN8FC2LLV-DE01-86" value="1:N" style="text;html=1;align=center;verticalAlign=middle;whiteSpace=wrap;rounded=0;" parent="WIyWlLk6GJQsqaUBKTNV-1" vertex="1">
          <mxGeometry x="30" y="155" width="60" height="22" as="geometry" />
        </mxCell>
        <mxCell id="KIG4UfqN8FC2LLV-DE01-87" value="1:N" style="text;html=1;align=center;verticalAlign=middle;whiteSpace=wrap;rounded=0;" parent="WIyWlLk6GJQsqaUBKTNV-1" vertex="1">
          <mxGeometry x="40" y="446" width="60" height="22" as="geometry" />
        </mxCell>
        <mxCell id="ciOHL-3bGy2Yxvcf03ZE-1" value="&lt;font style=&quot;font-size: 18px;&quot;&gt;AvaliaçãoMercado&lt;/font&gt;" style="rounded=1;whiteSpace=wrap;html=1;fontSize=12;glass=0;strokeWidth=1;shadow=0;" vertex="1" parent="WIyWlLk6GJQsqaUBKTNV-1">
          <mxGeometry x="680" y="420" width="160" height="62" as="geometry" />
        </mxCell>
        <mxCell id="ciOHL-3bGy2Yxvcf03ZE-3" style="edgeStyle=orthogonalEdgeStyle;rounded=0;orthogonalLoop=1;jettySize=auto;html=1;exitX=1;exitY=0.5;exitDx=0;exitDy=0;entryX=0.5;entryY=0;entryDx=0;entryDy=0;" edge="1" parent="WIyWlLk6GJQsqaUBKTNV-1" source="KIG4UfqN8FC2LLV-DE01-0" target="ciOHL-3bGy2Yxvcf03ZE-4">
          <mxGeometry relative="1" as="geometry">
            <mxPoint x="900" y="173" as="sourcePoint" />
            <mxPoint x="919" y="313" as="targetPoint" />
          </mxGeometry>
        </mxCell>
        <mxCell id="ciOHL-3bGy2Yxvcf03ZE-4" value="&lt;font style=&quot;font-size: 14px;&quot;&gt;Avalia&lt;/font&gt;" style="rhombus;whiteSpace=wrap;html=1;shadow=0;fontFamily=Helvetica;fontSize=12;align=center;strokeWidth=1;spacing=6;spacingTop=-4;" vertex="1" parent="WIyWlLk6GJQsqaUBKTNV-1">
          <mxGeometry x="863.25" y="250" width="87.5" height="60" as="geometry" />
        </mxCell>
        <mxCell id="ciOHL-3bGy2Yxvcf03ZE-6" style="edgeStyle=orthogonalEdgeStyle;rounded=0;orthogonalLoop=1;jettySize=auto;html=1;entryX=0.5;entryY=0;entryDx=0;entryDy=0;exitX=0.5;exitY=1;exitDx=0;exitDy=0;" edge="1" parent="WIyWlLk6GJQsqaUBKTNV-1" source="ciOHL-3bGy2Yxvcf03ZE-4" target="ciOHL-3bGy2Yxvcf03ZE-1">
          <mxGeometry relative="1" as="geometry">
            <mxPoint x="890" y="370" as="sourcePoint" />
            <mxPoint x="917" y="504" as="targetPoint" />
          </mxGeometry>
        </mxCell>
        <mxCell id="ciOHL-3bGy2Yxvcf03ZE-14" value="1:N" style="text;html=1;align=center;verticalAlign=middle;whiteSpace=wrap;rounded=0;" vertex="1" parent="WIyWlLk6GJQsqaUBKTNV-1">
          <mxGeometry x="90" y="109" width="60" height="22" as="geometry" />
        </mxCell>
        <mxCell id="ciOHL-3bGy2Yxvcf03ZE-16" value="1:1" style="text;html=1;align=center;verticalAlign=middle;whiteSpace=wrap;rounded=0;" vertex="1" parent="WIyWlLk6GJQsqaUBKTNV-1">
          <mxGeometry x="710" y="398" width="60" height="22" as="geometry" />
        </mxCell>
        <mxCell id="ciOHL-3bGy2Yxvcf03ZE-17" value="1:1" style="text;html=1;align=center;verticalAlign=middle;whiteSpace=wrap;rounded=0;" vertex="1" parent="WIyWlLk6GJQsqaUBKTNV-1">
          <mxGeometry x="763.75" y="151" width="60" height="22" as="geometry" />
        </mxCell>
        <mxCell id="ciOHL-3bGy2Yxvcf03ZE-19" value="1:N" style="text;html=1;align=center;verticalAlign=middle;whiteSpace=wrap;rounded=0;" vertex="1" parent="WIyWlLk6GJQsqaUBKTNV-1">
          <mxGeometry x="390" y="288" width="60" height="22" as="geometry" />
        </mxCell>
        <mxCell id="ciOHL-3bGy2Yxvcf03ZE-25" style="edgeStyle=orthogonalEdgeStyle;rounded=0;orthogonalLoop=1;jettySize=auto;html=1;entryX=1;entryY=0.5;entryDx=0;entryDy=0;" edge="1" parent="WIyWlLk6GJQsqaUBKTNV-1" source="ciOHL-3bGy2Yxvcf03ZE-21" target="ciOHL-3bGy2Yxvcf03ZE-1">
          <mxGeometry relative="1" as="geometry">
            <mxPoint x="1000" y="470" as="targetPoint" />
            <Array as="points">
              <mxPoint x="1010" y="92" />
              <mxPoint x="1010" y="451" />
            </Array>
          </mxGeometry>
        </mxCell>
        <mxCell id="ciOHL-3bGy2Yxvcf03ZE-21" value="Recebe" style="rhombus;whiteSpace=wrap;html=1;shadow=0;fontFamily=Helvetica;fontSize=12;align=center;strokeWidth=1;spacing=6;spacingTop=-4;" vertex="1" parent="WIyWlLk6GJQsqaUBKTNV-1">
          <mxGeometry x="840" y="62" width="78" height="60" as="geometry" />
        </mxCell>
        <mxCell id="ciOHL-3bGy2Yxvcf03ZE-26" value="1:N" style="text;html=1;align=center;verticalAlign=middle;whiteSpace=wrap;rounded=0;" vertex="1" parent="WIyWlLk6GJQsqaUBKTNV-1">
          <mxGeometry x="823.75" y="424" width="60" height="22" as="geometry" />
        </mxCell>
      </root>
    </mxGraphModel>
  </diagram>
</mxfile>
